# xmcd
#
# Track frame offsets:
#	150
#	15952
#	34789
#	58705
#	71729
#	101654
#	122534
#	148634
#	168659
#	179234
#
# Disc length: 2574 seconds
#
# Revision: 0
# Processed by: cddbd v1.5.1PL0 Copyright (c) Steve Scherf et al.
# Submitted via: dBpowerAMP V4.0
#
DISCID=8d0a0c0a
DTITLE=Nelsen Adelard - Blues Got A Hold On Me
DYEAR=1999
DGENRE=Blues
TTITLE0=Don't Stop Now!
TTITLE1=Tell Me Honey, Why'd Ya Do Me Wrong?
TTITLE2=Black And Blue
TTITLE3=Blues Got A Hold On Me
TTITLE4=Didn't Have To Leave Me Alone
TTITLE5=Give It One More Try
TTITLE6=Jocko's In The Bayou
TTITLE7=Jive Talkin' Mama
TTITLE8=Gotta Boogie!
TTITLE9=Ain't Misbehavin'
EXTD=
EXTT0=
EXTT1=
EXTT2=
EXTT3=
EXTT4=
EXTT5=
EXTT6=
EXTT7=
EXTT8=
EXTT9=
PLAYORDER=
